# xmcd
#
# Track frame offsets: 
#        150
#        22677
#        52422
#        73770
#        99115
#        126215
#        148792
#        173365
#        193480
#        220055
#        237357
#        259815
#
# Disc length: 3728 seconds
#
# Revision: 0
# Processed by: cddbd v1.5.2PL0 Copyright (c) Steve Scherf et al.
# Submitted via: ExactAudioCopy v0.95b3
#
DISCID=ae0e8e0c
DTITLE=Chanté Moore - The Best Of (The Millennium Collection)
DYEAR=2004
DGENRE=R&B
TTITLE0=Old School Lovin'
TTITLE1=Love's Taken Over
TTITLE2=What Do I Turn To?
TTITLE3=It's Alright
TTITLE4=This Time
TTITLE5=I'm What You Need
TTITLE6=My Special Perfect One
TTITLE7=Wey U (with Babyface)
TTITLE8=I Love You (with Keith Washington)
TTITLE9=Train Of Thought
TTITLE10=This Moment Is Mine
TTITLE11=Chanté's Got A Man
EXTD=
EXTT0=
EXTT1=
EXTT2=
EXTT3=
EXTT4=
EXTT5=
EXTT6=
EXTT7=
EXTT8=
EXTT9=
EXTT10=
EXTT11=
PLAYORDER=
